Coordinates
version=1
nRows=4
nColumns=63
inDegrees=yes

Units are S.I. units (second, meters, Newtons, ...)
If the header above contains a line with 'inDegrees', this indicates whether rotational values are in degrees (yes) or radians (no).

endheader
time	pelvis_tilt	pelvis_list	pelvis_rotation	pelvis_tx	pelvis_ty	pelvis_tz	hip_flexion_r	hip_adduction_r	hip_rotation_r	knee_angle_r	knee_angle_r_beta	ankle_angle_r	subtalar_angle_r	mtp_angle_r	hip_flexion_l	hip_adduction_l	hip_rotation_l	knee_angle_l	knee_angle_l_beta	ankle_angle_l	subtalar_angle_l	mtp_angle_l	L5_S1_Flex_Ext	L5_S1_Lat_Bending	L5_S1_axial_rotation	L4_L5_Flex_Ext	L4_L5_Lat_Bending	L4_L5_axial_rotation	L3_L4_Flex_Ext	L3_L4_Lat_Bending	L3_L4_axial_rotation	L2_L3_Flex_Ext	L2_L3_Lat_Bending	L2_L3_axial_rotation	L1_L2_Flex_Ext	L1_L2_Lat_Bending	L1_L2_axial_rotation	L1_T12_Flex_Ext	L1_T12_Lat_Bending	L1_T12_axial_rotation	Abs_r3	Abs_r2	Abs_r1	Abs_t1	Abs_t2	neck_flexion	neck_bending	neck_rotation	arm_flex_r	arm_add_r	arm_rot_r	elbow_flex_r	pro_sup_r	wrist_flex_r	wrist_dev_r	arm_flex_l	arm_add_l	arm_rot_l	elbow_flex_l	pro_sup_l	wrist_flex_l	wrist_dev_l
      9.86440678	     -0.11061120	     -5.81586624	     79.97325837	      0.19215518	      1.08898865	      0.49327056	      7.12870239	      0.64938358	      6.68339779	      4.41805059	      0.07710953	     13.57541744	     15.25881230	      0.00000000	      9.78076874	     -3.21879286	    -14.30798115	     14.39097533	      0.25116990	     18.57320823	     -6.77159643	      0.00000000	     -0.02880817	      1.70787296	      1.44914546	     -0.05349965	      2.27147103	      1.53971705	     -0.04732894	      4.15252231	      1.53971705	     -0.03292485	      4.15252231	      1.26800228	     -0.02675126	      3.48269454	      1.17743068	     -0.01646099	      2.64549521	      1.08685909	     -0.20577385	     19.31980048	      8.05971229	      0.00000000	      0.00000000	     15.48771164	    -15.92094797	    -19.52626945	      5.48760419	    -20.27738355	    110.41171161	      5.61576110	      3.89776361	     -6.16910019	    -18.96231286	     -4.40849849	    -16.91152637	     24.61107961	    116.74099628	     85.48404812	     26.87673407	     28.74847814
      9.88135593	     -0.01659666	     -5.80168055	     80.28589187	      0.19142479	      1.08917661	      0.49254510	      6.97121602	      0.68767641	      6.80422060	      4.27917772	      0.07468574	     13.37069219	     14.66235849	      0.00000000	      9.71619280	     -3.20513235	    -13.90628237	     14.33343756	      0.25016568	     18.27281454	     -6.99427518	      0.00000000	     -0.03265491	      1.71107770	      1.36816652	     -0.06064344	      2.27573334	      1.45367692	     -0.05364876	      4.16031432	      1.45367692	     -0.03732130	      4.16031432	      1.19714570	     -0.03032335	      3.48922965	      1.11163529	     -0.01865902	      2.65045936	      1.02612489	     -0.23325077	     19.35605316	      7.60933171	      0.00000000	      0.00000000	     15.77742987	    -15.77338969	    -19.91290378	      5.56965601	    -20.21905131	    112.36555429	      5.34471336	      3.04376367	     -6.41132607	    -18.95760350	     -4.60925176	    -16.80491866	     24.30899327	    116.83881225	     86.00608149	     26.56003342	     28.62317325
      9.89830508	      0.12300209	     -5.72582669	     80.60930737	      0.19052245	      1.08952520	      0.49166773	      6.75827080	      0.73346513	      6.23226695	      4.15889617	      0.07258643	     13.21908886	     15.01796475	      0.00000000	      9.56022774	     -3.23078518	    -13.60068485	     14.25104817	      0.24872771	     18.14418070	     -6.91870653	      0.00000000	     -0.04299639	      1.72165867	      1.28550033	     -0.07984860	      2.28980603	      1.36584410	     -0.07063877	      4.18604089	      1.36584410	     -0.04914058	      4.18604089	      1.12481279	     -0.03992645	      3.51080636	      1.04446902	     -0.02456814	      2.66684928	      0.96412525	     -0.30711892	     19.47574720	      7.14956718	      0.00000000	      0.00000000	     16.09636514	    -15.48058251	    -20.04767161	      5.62632864	    -20.31721115	    111.58579201	      5.54807926	      3.32648919	     -6.53030229	    -18.87292775	     -4.79945443	    -16.62019286	     24.08045584	    116.95953014	     86.28039248	     26.04846820	     28.88540759
      9.91525424	      0.16396819	     -5.71661914	     80.67266457	      0.18979852	      1.08979023	      0.49063212	      6.63138365	      0.73800295	      6.67547448	      4.02773294	      0.07029720	     13.05173007	     14.35227955	      0.00000000	      9.50166408	     -3.04180640	    -12.19590099	     14.18602403	      0.24759283	     17.68666570	     -8.84588781	      0.00000000	     -0.04062696	      1.72380541	      1.26747370	     -0.07544833	      2.29266119	      1.34669081	     -0.06674603	      4.19126047	      1.34669081	     -0.04643255	      4.19126047	      1.10903949	     -0.03772620	      3.51518399	      1.02982238	     -0.02321425	      2.67017458	      0.95060528	     -0.29019432	     19.50003154	      7.04930850	      0.00000000	      0.00000000	     16.17380078	    -15.59909206	    -20.77532190	      5.55549145	    -20.20777693	    112.52006443	      5.10173256	      2.72194457	     -6.18452636	    -18.33068087	     -4.94560065	    -16.38148013	     23.89829230	    116.92006505	     86.61462124	     26.26213374	     28.51690604
